<svg xmlns="http://www.w3.org/2000/svg" width="657.948" height="644.206" viewBox="0 0 657.948 644.206">
  <g id="Group_46" data-name="Group 46" transform="translate(-1090 -1198)">
    <g id="Path_4" data-name="Path 4" transform="translate(1126 1226.834)" fill="#fff">
      <path d="M 621.4478759765625 614.8724365234375 L 0.5000149011611938 614.8724365234375 L 0.5000149011611938 0.5000339150428772 L 621.4478759765625 0.5000339150428772 L 621.4478759765625 614.8724365234375 Z" stroke="none"/>
      <path d="M 1 0.99993896484375 L 1 614.372314453125 L 620.9478759765625 614.372314453125 L 620.9478759765625 0.99993896484375 L 1 0.99993896484375 M 0 -6.103515625e-05 L 621.9478759765625 -6.103515625e-05 L 621.9478759765625 615.372314453125 L 0 615.372314453125 L 0 -6.103515625e-05 Z" stroke="none" fill="#707070"/>
    </g>
    <g id="Path_9" data-name="Path 9" transform="translate(1126 1226.834)" fill="#fff">
      <path d="M 621.4478759765625 614.8724365234375 L 0.5000149011611938 614.8724365234375 L 0.5000149011611938 0.5000339150428772 L 621.4478759765625 0.5000339150428772 L 621.4478759765625 614.8724365234375 Z" stroke="none"/>
      <path d="M 1 0.99993896484375 L 1 614.372314453125 L 620.9478759765625 614.372314453125 L 620.9478759765625 0.99993896484375 L 1 0.99993896484375 M 0 -6.103515625e-05 L 621.9478759765625 -6.103515625e-05 L 621.9478759765625 615.372314453125 L 0 615.372314453125 L 0 -6.103515625e-05 Z" stroke="none" fill="#00618c"/>
    </g>
    <g id="Path_15" data-name="Path 15" transform="translate(1090 1198)" fill="#fff">
      <path d="M 621.4478759765625 614.8724365234375 L 0.5000149011611938 614.8724365234375 L 0.5000149011611938 0.5000339150428772 L 621.4478759765625 0.5000339150428772 L 621.4478759765625 614.8724365234375 Z" stroke="none"/>
      <path d="M 1 0.99993896484375 L 1 614.372314453125 L 620.9478759765625 614.372314453125 L 620.9478759765625 0.99993896484375 L 1 0.99993896484375 M 0 -6.103515625e-05 L 621.9478759765625 -6.103515625e-05 L 621.9478759765625 615.372314453125 L 0 615.372314453125 L 0 -6.103515625e-05 Z" stroke="none" fill="#00618c"/>
    </g>
    <path id="Path_19" data-name="Path 19" d="M3830.194,1399.7l63.82,30.636H3796.62" transform="translate(-2433.373)" fill="none" stroke="#00618c" stroke-linecap="round" stroke-width="5"/>
    <g id="Group_38" data-name="Group 38">
      <g id="surface1" transform="translate(1272.911 1377.999)">
        <path id="Path_18" data-name="Path 18" d="M4.8,70.714a10.356,10.356,0,0,0-.162,1.531V82.776a10.44,10.44,0,0,0,6.775,9.744v15.5a9.741,9.741,0,0,0,9.279,9.7v89.518a9.744,9.744,0,0,0-9.279,9.7v15.45a10.557,10.557,0,0,0-6.775,9.836v10.3a3.481,3.481,0,0,0,3.48,3.479H242.784a3.48,3.48,0,0,0,3.479-3.479v-10.3a10.555,10.555,0,0,0-6.773-9.836V216.837a9.743,9.743,0,0,0-9.279-9.7V117.713a9.743,9.743,0,0,0,9.279-9.7v-15.5a10.441,10.441,0,0,0,6.773-9.744V72.315a10.133,10.133,0,0,0-.162-1.531,3.464,3.464,0,0,0,2.809-6.333L127.051.4A3.48,3.48,0,0,0,123.8.4L1.947,64.381A3.48,3.48,0,0,0,4.8,70.714ZM18.371,98.551V93.192H58.5v5.313Zm89.356,19.186v89.495a9.744,9.744,0,0,0-9.279,9.7v14.8H65.414v-14.8a9.744,9.744,0,0,0-9.279-9.7V117.713a9.741,9.741,0,0,0,9.279-9.7V93.192H98.4v14.8a9.746,9.746,0,0,0,9.281,9.719Zm-2.32-19.186V93.192H145.54v5.313Zm89.358,19.186v89.495a9.745,9.745,0,0,0-9.281,9.7v14.8H152.452v-14.8a9.745,9.745,0,0,0-9.279-9.7V117.713a9.743,9.743,0,0,0,9.279-9.7V93.192h32.987v14.8a9.743,9.743,0,0,0,9.279,9.719Zm-2.32-19.186V93.192h40.131v5.313Zm40.131,127.866v5.311H192.4v-5.311Zm-87.036,0v5.311H105.362v-5.311ZM111.16,110.823h-3.015a2.782,2.782,0,0,1-2.783-2.783v-2.53h40.131v2.53a2.782,2.782,0,0,1-2.783,2.783Zm25.077,6.959v89.4h-21.6v-89.4ZM111.16,214.145h31.549a2.782,2.782,0,0,1,2.783,2.783v2.53H105.362v-2.53a2.782,2.782,0,0,1,2.783-2.783Zm-52.7,12.272v5.311H18.324v-5.311ZM18.324,108.109v-2.6H58.456v2.53a2.783,2.783,0,0,1-2.785,2.783H21.038a2.783,2.783,0,0,1-2.714-2.807Zm30.854,9.743v89.334H27.6v-89.4ZM18.324,217a2.783,2.783,0,0,1,2.783-2.785H55.671A2.783,2.783,0,0,1,58.456,217v2.528H18.324ZM239.3,242.354v6.819H11.551v-6.819a3.6,3.6,0,0,1,3.6-3.6H235.708a3.6,3.6,0,0,1,3.6,3.526ZM232.531,217v2.528H192.4V217a2.783,2.783,0,0,1,2.783-2.785h34.635a2.784,2.784,0,0,1,2.714,2.714Zm-30.854-9.744V117.782h21.6v89.4Zm30.854-99.146a2.782,2.782,0,0,1-2.783,2.783H195.205a2.782,2.782,0,0,1-2.783-2.783v-2.6h40.131ZM125.427,7.362,229.05,61.829H21.8ZM11.551,72.315a3.48,3.48,0,0,1,3.479-3.479h220.8a3.48,3.48,0,0,1,3.479,3.479V82.847a3.48,3.48,0,0,1-3.479,3.479H15.029a3.48,3.48,0,0,1-3.479-3.479Zm0,0" transform="translate(0)" fill="#00618c"/>
      </g>
      <g id="Ellipse_21" data-name="Ellipse 21" transform="translate(1423 1539)" fill="#fff" stroke="#00618c" stroke-width="4">
        <circle cx="45.5" cy="45.5" r="45.5" stroke="none"/>
        <circle cx="45.5" cy="45.5" r="43.5" fill="none"/>
      </g>
      <path id="Icon_awesome-check" data-name="Icon awesome-check" d="M15,36.873.647,22.515a2.209,2.209,0,0,1,0-3.124l3.124-3.124a2.209,2.209,0,0,1,3.124,0l9.672,9.672L37.281,5.224a2.209,2.209,0,0,1,3.124,0l3.124,3.124a2.209,2.209,0,0,1,0,3.124l-25.4,25.4A2.209,2.209,0,0,1,15,36.873Z" transform="translate(1447 1563.423)" fill="#00618c"/>
    </g>
  </g>
</svg>
