<svg xmlns="http://www.w3.org/2000/svg" width="700" height="524" viewBox="0 0 700 524">
  <g id="Group_24" data-name="Group 24" transform="translate(-5033 -147)">
    <rect id="Rectangle_34" data-name="Rectangle 34" width="700" height="524" transform="translate(5033 147)" fill="none"/>
    <g id="Group_23" data-name="Group 23" transform="translate(1019 -257)">
      <g id="Icon_ionic-ios-desktop" data-name="Icon ionic-ios-desktop" transform="translate(4062.75 405.5)">
        <path id="Path_10" data-name="Path 10" d="M267.218,84.372a6.788,6.788,0,0,0-5.6-5.731L231.9,76.109c-15.728-4.132-27.324-21.593-29.723-37.72l-1.6-10.263H77.949l-1.6,10.13c-2.532,16.128-14,33.589-29.723,37.72L16.9,78.508a7.273,7.273,0,0,0-5.6,5.731,6.837,6.837,0,0,0,6.8,7.731H260.42A6.734,6.734,0,0,0,267.218,84.372Z" transform="translate(161.553 424.222)" fill="#fff"/>
        <path id="Path_11" data-name="Path 11" d="M589.916,13.83A32.2,32.2,0,0,0,567.257,4.5H34.506a31.965,31.965,0,0,0-22.659,9.33,32.462,32.462,0,0,0-9.6,22.659V399.032a32.222,32.222,0,0,0,9.6,22.659,31.579,31.579,0,0,0,22.392,9.33H567.39a31.35,31.35,0,0,0,22.392-9.33,32.462,32.462,0,0,0,9.6-22.659V36.489A31.769,31.769,0,0,0,589.916,13.83Zm-289.1,385.2a10.663,10.663,0,1,1,10.663-10.663A10.694,10.694,0,0,1,300.815,399.032Zm271.774-53.315H29.174a5.347,5.347,0,0,1-5.332-5.331V41.821A16.042,16.042,0,0,1,39.837,25.826H561.925A16.042,16.042,0,0,1,577.92,41.821V340.385A5.347,5.347,0,0,1,572.588,345.717Z" fill="#fff"/>
      </g>
      <path id="Icon_feather-shield" data-name="Icon feather-shield" d="M93.693,222.233s87.693-43.847,87.693-109.616V35.885L93.693,3,6,35.885v76.731C6,178.386,93.693,222.233,93.693,222.233Z" transform="translate(4269.5 486.5)" fill="none" stroke="#fff" stroke-linecap="round" stroke-linejoin="round" stroke-width="8"/>
      <path id="Icon_awesome-check" data-name="Icon awesome-check" d="M45.065,101.576,1.943,58.455a6.634,6.634,0,0,1,0-9.382l9.382-9.382a6.634,6.634,0,0,1,9.382,0L49.756,68.739,111.975,6.52a6.634,6.634,0,0,1,9.382,0l9.382,9.382a6.634,6.634,0,0,1,0,9.382L54.447,101.576A6.634,6.634,0,0,1,45.065,101.576Z" transform="translate(4299 544.423)" fill="#fff"/>
    </g>
  </g>
</svg>
