<svg xmlns="http://www.w3.org/2000/svg" width="711.97" height="678.477" viewBox="0 0 711.97 678.477">
  <g id="Group_47" data-name="Group 47" transform="translate(-170.433 -1967.762)">
    <g id="Path_5" data-name="Path 5" transform="translate(170.433 1967.762)" fill="#fff">
      <path d="M 671.9024047851562 637.7384643554688 L 0.4999746978282928 637.7384643554688 L 0.4999746978282928 0.5000349879264832 L 671.9024047851562 0.5000349879264832 L 671.9024047851562 637.7384643554688 Z" stroke="none"/>
      <path d="M 0.9998779296875 0.99993896484375 L 0.9998779296875 637.2383422851562 L 671.4022827148438 637.2383422851562 L 671.4022827148438 0.99993896484375 L 0.9998779296875 0.99993896484375 M -0.0001220703125 -6.103515625e-05 L 672.4022827148438 -6.103515625e-05 L 672.4022827148438 638.2383422851562 L -0.0001220703125 638.2383422851562 L -0.0001220703125 -6.103515625e-05 Z" stroke="none" fill="#00618c"/>
    </g>
    <g id="Path_20" data-name="Path 20" transform="translate(210 2008)" fill="#fff">
      <path d="M 671.9024047851562 637.7384643554688 L 0.4999746978282928 637.7384643554688 L 0.4999746978282928 0.5000349879264832 L 671.9024047851562 0.5000349879264832 L 671.9024047851562 637.7384643554688 Z" stroke="none"/>
      <path d="M 0.9998779296875 0.99993896484375 L 0.9998779296875 637.2383422851562 L 671.4022827148438 637.2383422851562 L 671.4022827148438 0.99993896484375 L 0.9998779296875 0.99993896484375 M -0.0001220703125 -6.103515625e-05 L 672.4022827148438 -6.103515625e-05 L 672.4022827148438 638.2383422851562 L -0.0001220703125 638.2383422851562 L -0.0001220703125 -6.103515625e-05 Z" stroke="none" fill="#00618c"/>
    </g>
    <path id="Icon_awesome-users" data-name="Icon awesome-users" d="M47.23,96.71A31.487,31.487,0,1,0,15.743,65.224,31.516,31.516,0,0,0,47.23,96.71Zm220.408,0a31.487,31.487,0,1,0-31.487-31.487A31.516,31.516,0,0,0,267.638,96.71Zm15.743,15.743H251.895a31.394,31.394,0,0,0-22.188,9.151,71.964,71.964,0,0,1,36.948,53.823h32.471a15.727,15.727,0,0,0,15.743-15.743V143.941A31.516,31.516,0,0,0,283.381,112.454Zm-125.947,0a55.1,55.1,0,1,0-55.1-55.1A55.074,55.074,0,0,0,157.434,112.454ZM195.218,128.2h-4.083a76.076,76.076,0,0,1-67.4,0H119.65a56.691,56.691,0,0,0-56.676,56.676v14.169a23.621,23.621,0,0,0,23.615,23.615H228.279a23.621,23.621,0,0,0,23.615-23.615V184.874A56.691,56.691,0,0,0,195.218,128.2ZM85.162,121.6a31.394,31.394,0,0,0-22.188-9.151H31.487A31.516,31.516,0,0,0,0,143.941v15.743a15.727,15.727,0,0,0,15.743,15.743H48.165A72.145,72.145,0,0,1,85.162,121.6Z" transform="translate(389 2214.75)" fill="#00618c"/>
  </g>
</svg>
