<svg xmlns="http://www.w3.org/2000/svg" width="660" height="656.206" viewBox="0 0 660 656.206">
  <g id="Group_50" data-name="Group 50" transform="translate(-1084 -4923)">
    <g id="Path_7" data-name="Path 7" transform="translate(1122.052 4963.834)" fill="#fff">
      <path d="M 621.4478759765625 614.8724365234375 L 0.5000149011611938 614.8724365234375 L 0.5000149011611938 0.5000339150428772 L 621.4478759765625 0.5000339150428772 L 621.4478759765625 614.8724365234375 Z" stroke="none"/>
      <path d="M 1 0.99993896484375 L 1 614.372314453125 L 620.9478759765625 614.372314453125 L 620.9478759765625 0.99993896484375 L 1 0.99993896484375 M 0 -6.103515625e-05 L 621.9478759765625 -6.103515625e-05 L 621.9478759765625 615.372314453125 L 0 615.372314453125 L 0 -6.103515625e-05 Z" stroke="none" fill="#00618c"/>
    </g>
    <g id="icon-box" transform="translate(1084 4923)" fill="#fff">
      <path d="M 621.4478759765625 614.8724365234375 L 0.5000149011611938 614.8724365234375 L 0.5000149011611938 0.5000339150428772 L 621.4478759765625 0.5000339150428772 L 621.4478759765625 614.8724365234375 Z" stroke="none"/>
      <path d="M 1 0.99993896484375 L 1 614.372314453125 L 620.9478759765625 614.372314453125 L 620.9478759765625 0.99993896484375 L 1 0.99993896484375 M 0 -6.103515625e-05 L 621.9478759765625 -6.103515625e-05 L 621.9478759765625 615.372314453125 L 0 615.372314453125 L 0 -6.103515625e-05 Z" stroke="none" fill="#00618c"/>
    </g>
    <g id="Group_37" data-name="Group 37" transform="translate(-4356.037 3653.598)">
      <g id="Ellipse_20" data-name="Ellipse 20" transform="matrix(-0.988, 0.156, -0.156, -0.988, 5920.554, 1705.957)" fill="none" stroke="#3dea98" stroke-width="5" stroke-dasharray="170 100">
        <ellipse cx="152.128" cy="152.128" rx="152.128" ry="152.128" stroke="none"/>
        <ellipse cx="152.128" cy="152.128" rx="149.628" ry="149.628" fill="none"/>
      </g>
      <g id="Group_34" data-name="Group 34" transform="translate(5569.037 1579.469)">
        <g id="bank" transform="translate(0)">
          <g id="Group_26" data-name="Group 26" transform="translate(0 0)">
            <g id="Group_25" data-name="Group 25">
              <path id="Path_12" data-name="Path 12" d="M66.915,61.013A15.812,15.812,0,0,0,63.25,41V31.631h1.438a1.438,1.438,0,0,0,1.438-1.438V25.881h1.438a1.437,1.437,0,0,0,.819-2.616L35.319.265a1.437,1.437,0,0,0-1.639,0l-33.062,23a1.437,1.437,0,0,0,.819,2.616H2.875v4.312a1.438,1.438,0,0,0,1.438,1.438H5.75v23H4.312a1.438,1.438,0,0,0-1.438,1.438V60.64A4.312,4.312,0,0,0,0,64.693v2.875a1.438,1.438,0,0,0,1.438,1.438H67.562A1.438,1.438,0,0,0,69,67.568V64.693A4.312,4.312,0,0,0,66.915,61.013ZM63.25,28.756H51.75V25.881h11.5Zm-2.875,2.875V39.12a15.668,15.668,0,0,0-5.75-1.667V31.631h5.75ZM34.5,3.2,62.977,23.006H6.023ZM18.687,54.631H17.25v-23h1.438a1.438,1.438,0,0,0,1.438-1.438V25.881h5.75v4.312a1.438,1.438,0,0,0,1.438,1.438H28.75v23H27.312a1.438,1.438,0,0,0-1.438,1.438v4.312h-5.75V56.068A1.437,1.437,0,0,0,18.687,54.631ZM28.75,57.506h9.243a15.683,15.683,0,0,0,1.136,2.875H28.75V57.506Zm2.875-2.875v-23h5.75v23Zm7.187-25.875H28.75V25.881h11.5v2.875H38.812Zm1.438,2.875h1.438a1.438,1.438,0,0,0,1.438-1.438V25.881h5.75v4.312a1.438,1.438,0,0,0,1.438,1.438H51.75v5.822a15.812,15.812,0,0,0-11.5,6.67Zm-34.5-5.75h11.5v2.875H5.75Zm8.625,5.75v23H8.625v-23ZM5.75,57.506h11.5v2.875H5.75ZM2.875,66.131V64.693a1.438,1.438,0,0,1,1.438-1.438H41a15.942,15.942,0,0,0,3.119,2.875H2.875Zm63.25,0H62.244a15.932,15.932,0,0,0,3.019-2.746,1.438,1.438,0,0,1,.862,1.308Zm-12.937,0A12.937,12.937,0,1,1,66.125,53.193,12.938,12.938,0,0,1,53.187,66.131Z" transform="translate(0 -0.008)" fill="#00618c"/>
              <path id="Path_13" data-name="Path 13" d="M180.44,56.185l-15.812-11.5-1.768,2.329,12.233,8.9h-25.76v2.875H179.52a1.441,1.441,0,0,0,.92-2.6Z" transform="translate(-129.208 -38.664)" fill="#00618c"/>
            </g>
          </g>
        </g>
        <path id="Icon_awesome-check" data-name="Icon awesome-check" d="M4.671,14.631.2,10.161a.688.688,0,0,1,0-.972l.972-.972a.688.688,0,0,1,.972,0l3.011,3.011,6.449-6.449a.688.688,0,0,1,.972,0l.972.972a.688.688,0,0,1,0,.972L5.643,14.631A.688.688,0,0,1,4.671,14.631Z" transform="translate(46.078 43.772)" fill="#00618c"/>
      </g>
      <g id="Group_35" data-name="Group 35" transform="translate(5848.52 1561.594)">
        <g id="Icon_ionic-ios-desktop" data-name="Icon ionic-ios-desktop" transform="translate(0 0)">
          <path id="Path_10" data-name="Path 10" d="M47.115,36.007a.951.951,0,0,0-.784-.8l-4.165-.355c-2.2-.579-3.829-3.026-4.165-5.286l-.224-1.438H20.594l-.224,1.419c-.355,2.26-1.961,4.707-4.165,5.286l-4.165.355a1.019,1.019,0,0,0-.784.8.958.958,0,0,0,.953,1.083H46.163A.944.944,0,0,0,47.115,36.007Z" transform="translate(12.652 34.631)" fill="#00618c"/>
          <path id="Path_11" data-name="Path 11" d="M84.6,5.807A4.512,4.512,0,0,0,81.423,4.5H6.77A4.479,4.479,0,0,0,3.595,5.807,4.549,4.549,0,0,0,2.25,8.983v50.8A4.515,4.515,0,0,0,3.595,62.96a4.425,4.425,0,0,0,3.138,1.307H81.442a4.393,4.393,0,0,0,3.138-1.307,4.549,4.549,0,0,0,1.345-3.175V8.983A4.452,4.452,0,0,0,84.6,5.807ZM44.087,59.785a1.494,1.494,0,1,1,1.494-1.494A1.5,1.5,0,0,1,44.087,59.785ZM82.17,52.314H6.023a.749.749,0,0,1-.747-.747V9.73A2.248,2.248,0,0,1,7.517,7.488H80.676A2.248,2.248,0,0,1,82.917,9.73V51.567A.749.749,0,0,1,82.17,52.314Z" transform="translate(-2.25 -4.5)" fill="#00618c"/>
        </g>
      </g>
      <g id="Icon_feather-user" data-name="Icon feather-user" transform="translate(5711.847 1399.402)">
        <path id="Path_16" data-name="Path 16" d="M61.646,43.367V36.412A13.912,13.912,0,0,0,47.735,22.5H19.912A13.912,13.912,0,0,0,6,36.412v6.956" transform="translate(-6 19.235)" fill="none" stroke="#00618c" stroke-linecap="round" stroke-linejoin="round" stroke-width="3.5"/>
        <path id="Path_17" data-name="Path 17" d="M39.823,18.412A13.912,13.912,0,1,1,25.912,4.5,13.912,13.912,0,0,1,39.823,18.412Z" transform="translate(1.912 -4.5)" fill="none" stroke="#00618c" stroke-linecap="round" stroke-linejoin="round" stroke-width="3.5"/>
      </g>
      <path id="Icon_ionic-ios-arrow-dropup-circle" data-name="Icon ionic-ios-arrow-dropup-circle" d="M18,32.625A14.625,14.625,0,1,0,3.375,18,14.623,14.623,0,0,0,18,32.625Zm0-17.191-5.7,5.759a1.357,1.357,0,1,1-1.92-1.92l6.729-6.708a1.356,1.356,0,0,1,1.87-.042l6.63,6.609a1.355,1.355,0,1,1-1.912,1.92Z" transform="matrix(-0.53, 0.848, -0.848, -0.53, 5879.428, 1474.899)" fill="#00618c"/>
      <path id="Icon_ionic-ios-arrow-dropup-circle-2" data-name="Icon ionic-ios-arrow-dropup-circle" d="M18,32.625A14.625,14.625,0,1,0,3.375,18,14.623,14.623,0,0,0,18,32.625Zm0-17.191-5.7,5.759a1.357,1.357,0,1,1-1.92-1.92l6.729-6.708a1.356,1.356,0,0,1,1.87-.042l6.63,6.609a1.355,1.355,0,1,1-1.912,1.92Z" transform="translate(5731.592 1747.542) rotate(-93)" fill="#00618c"/>
      <path id="Icon_ionic-ios-arrow-dropup-circle-3" data-name="Icon ionic-ios-arrow-dropup-circle" d="M18,32.625A14.625,14.625,0,1,0,3.375,18,14.623,14.623,0,0,0,18,32.625Zm0-17.191-5.7,5.759a1.357,1.357,0,1,1-1.92-1.92l6.729-6.708a1.356,1.356,0,0,1,1.87-.042l6.63,6.609a1.355,1.355,0,1,1-1.912,1.92Z" transform="matrix(0.978, 0.208, -0.208, 0.978, 5600.761, 1487.276)" fill="#00618c"/>
    </g>
    <g id="Group_49" data-name="Group 49" transform="translate(-3194.74 3766.576)">
      <path id="Icon_feather-shield" data-name="Icon feather-shield" d="M14.834,25.084s8.834-4.417,8.834-11.042V6.313L14.834,3,6,6.313v7.73C6,20.668,14.834,25.084,14.834,25.084Z" transform="translate(4714.5 1460.5)" fill="none" stroke="#00618c" stroke-linecap="round" stroke-linejoin="round" stroke-width="2"/>
      <path id="Icon_awesome-check-2" data-name="Icon awesome-check" d="M3.462,12.028.149,8.716A.51.51,0,0,1,.149,8L.87,7.274a.51.51,0,0,1,.721,0L3.822,9.506,8.6,4.726a.51.51,0,0,1,.721,0l.721.721a.51.51,0,0,1,0,.721l-5.86,5.86A.51.51,0,0,1,3.462,12.028Z" transform="translate(4724.454 1466.1)" fill="#00618c"/>
    </g>
  </g>
</svg>
